PathFileType	4	(X/Y/Z)	 New Session 108.trc
DataRate	CameraRate	NumFrames	NumMarkers	Units	OrigDataRate	OrigDataStartFrame	OrigNumFrames
100	100	14	14	m	100	591	945
Frame#	Time	C7			T8			IJ			PX			AA			AC			AI			TS			SC			GH			LE			ME			US			RS			
		X1	Y1	Z1	X2	Y2	Z2	X3	Y3	Z3	X4	Y4	Z4	X5	Y5	Z5	X6	Y6	Z6	X7	Y7	Z7	X8	Y8	Z8	X9	Y9	Z9	X10	Y10	Z10	X11	Y11	Z11	X12	Y12	Z12	X13	Y13	Z13	X14	Y14	Z14	
591	5.9100	0.022449	0.103952	0.154399	0.010791	-0.111597	0.233860	0.005244	-0.003158	-0.001456	0.000414	-0.143856	-0.067014	0.220986	-0.007683	0.149478	0.173290	0.034447	0.076907	0.100933	0.023170	0.203824	0.094203	-0.095086	0.240424	0.030641	0.003825	0.003845	0.233266	0.003639	0.107734	0.275515	-0.275990	0.007771	0.188176	-0.294836	-0.020998	0.312460	-0.527522	-0.105660	0.371427	-0.490565	-0.136313	
592	5.9200	0.022516	0.104002	0.154113	0.010898	-0.111530	0.233673	0.005404	-0.003234	-0.001693	0.000437	-0.143928	-0.067199	0.221160	-0.007629	0.149269	0.173395	0.034252	0.076571	0.101104	0.023309	0.203471	0.094351	-0.094909	0.240295	0.030759	0.003775	0.003591	0.233407	0.003435	0.107553	0.274797	-0.277473	0.010252	0.187503	-0.296236	-0.018454	0.310925	-0.530087	-0.101064	0.369925	-0.493533	-0.132192	
593	5.9300	0.022579	0.104043	0.153829	0.010970	-0.111464	0.233512	0.005561	-0.003306	-0.001921	0.000466	-0.143994	-0.067373	0.221126	-0.007721	0.149253	0.173528	0.034061	0.076332	0.101242	0.023415	0.203171	0.094416	-0.094746	0.240231	0.030863	0.003729	0.003361	0.233543	0.003149	0.107579	0.274164	-0.278786	0.012537	0.186882	-0.297557	-0.015990	0.309521	-0.532524	-0.096609	0.368415	-0.496289	-0.128438	
594	5.9400	0.022650	0.104064	0.153554	0.011001	-0.111403	0.233375	0.005718	-0.003371	-0.002132	0.000506	-0.144054	-0.067532	0.220910	-0.007944	0.149407	0.173755	0.033883	0.076167	0.101301	0.023480	0.202935	0.094359	-0.094629	0.240187	0.030956	0.003663	0.003154	0.233696	0.002808	0.107802	0.273574	-0.279959	0.014630	0.186285	-0.298773	-0.013651	0.308231	-0.534797	-0.092337	0.366931	-0.498842	-0.125005	
595	5.9500	0.022735	0.104062	0.153296	0.010988	-0.111349	0.233261	0.005884	-0.003431	-0.002322	0.000560	-0.144110	-0.067672	0.220605	-0.008249	0.149680	0.174091	0.033714	0.076065	0.101262	0.023495	0.202767	0.094172	-0.094587	0.240121	0.031056	0.003563	0.002991	0.233874	0.002452	0.108163	0.273004	-0.281020	0.016548	0.185680	-0.299859	-0.011491	0.307012	-0.536870	-0.088308	0.365500	-0.501198	-0.121828	
596	5.9600	0.022836	0.104045	0.153060	0.010928	-0.111303	0.233165	0.006066	-0.003486	-0.002489	0.000633	-0.144164	-0.067791	0.220318	-0.008568	0.150013	0.174500	0.033565	0.076020	0.101149	0.023460	0.202668	0.093891	-0.094623	0.240063	0.031191	0.003447	0.002886	0.234062	0.002121	0.108577	0.272436	-0.281979	0.018300	0.185048	-0.300793	-0.009563	0.305806	-0.538724	-0.084580	0.364139	-0.503367	-0.118844	
597	5.9700	0.022945	0.104031	0.152849	0.010824	-0.111267	0.233081	0.006265	-0.003538	-0.002634	0.000726	-0.144216	-0.067890	0.220115	-0.008847	0.150343	0.174899	0.033452	0.076031	0.101007	0.023384	0.202630	0.093581	-0.094714	0.240124	0.031374	0.003348	0.002827	0.234231	0.001853	0.108969	0.271857	-0.282831	0.019876	0.184384	-0.301562	-0.007928	0.304566	-0.540359	-0.081204	0.362852	-0.505358	-0.116002	
598	5.9800	0.023052	0.104027	0.152657	0.010682	-0.111239	0.233004	0.006483	-0.003588	-0.002762	0.000841	-0.144264	-0.067971	0.220004	-0.009058	0.150620	0.175205	0.033381	0.076095	0.100873	0.023280	0.202640	0.093275	-0.094829	0.240353	0.031580	0.003288	0.002758	0.234361	0.001662	0.109300	0.271269	-0.283569	0.021269	0.183697	-0.302170	-0.006642	0.303270	-0.541785	-0.078213	0.361642	-0.507174	-0.113286	
599	5.9900	0.023150	0.104029	0.152478	0.010512	-0.111218	0.232931	0.006713	-0.003640	-0.002878	0.000977	-0.144308	-0.068038	0.219962	-0.009196	0.150830	0.175404	0.033343	0.076188	0.100741	0.023162	0.202683	0.092966	-0.094948	0.240675	0.031775	0.003269	0.002641	0.234455	0.001534	0.109556	0.270681	-0.284200	0.022485	0.183000	-0.302642	-0.005731	0.301928	-0.543017	-0.075620	0.360515	-0.508814	-0.110715	
600	6.0000	0.023228	0.104032	0.152312	0.010325	-0.111202	0.232859	0.006945	-0.003696	-0.002984	0.001133	-0.144349	-0.068096	0.219958	-0.009279	0.150981	0.175519	0.033317	0.076283	0.100605	0.023047	0.202740	0.092646	-0.095061	0.240967	0.031956	0.003266	0.002533	0.234529	0.001440	0.109738	0.270101	-0.284740	0.023541	0.182307	-0.303011	-0.005172	0.300581	-0.544072	-0.073428	0.359478	-0.510273	-0.108338	
601	6.0100	0.023286	0.104034	0.152167	0.010134	-0.111188	0.232786	0.007162	-0.003752	-0.003085	0.001307	-0.144385	-0.068145	0.219972	-0.009336	0.151086	0.175574	0.033277	0.076379	0.100475	0.022948	0.202791	0.092332	-0.095156	0.241134	0.032135	0.003249	0.002465	0.234596	0.001356	0.109853	0.269538	-0.285213	0.024455	0.181633	-0.303308	-0.004884	0.299274	-0.544971	-0.071634	0.358539	-0.511546	-0.106207	
602	6.0200	0.023327	0.104037	0.152050	0.009949	-0.111175	0.232713	0.007356	-0.003803	-0.003181	0.001493	-0.144419	-0.068188	0.219999	-0.009384	0.151154	0.175570	0.033210	0.076484	0.100373	0.022881	0.202819	0.092059	-0.095225	0.241176	0.032306	0.003225	0.002385	0.234655	0.001272	0.109921	0.268998	-0.285637	0.025246	0.180997	-0.303559	-0.004742	0.298052	-0.545735	-0.070214	0.357700	-0.512634	-0.104365	
603	6.0300	0.023353	0.104043	0.151959	0.009782	-0.111159	0.232642	0.007520	-0.003844	-0.003276	0.001685	-0.144455	-0.068224	0.220034	-0.009424	0.151201	0.175529	0.033118	0.076581	0.100314	0.022851	0.202821	0.091861	-0.095254	0.241183	0.032460	0.003211	0.002250	0.234704	0.001190	0.109964	0.268492	-0.286017	0.025922	0.180419	-0.303782	-0.004627	0.296959	-0.546380	-0.069126	0.356961	-0.513541	-0.102842	
604	6.0400	0.023365	0.104051	0.151884	0.009637	-0.111139	0.232573	0.007655	-0.003871	-0.003369	0.001878	-0.144495	-0.068256	0.220068	-0.009451	0.151240	0.175510	0.033024	0.076636	0.100291	0.022855	0.202803	0.091754	-0.095233	0.241249	0.032613	0.003198	0.002118	0.234738	0.001117	0.109996	0.268039	-0.286348	0.026474	0.179917	-0.303983	-0.004466	0.296031	-0.546902	-0.068319	0.356324	-0.514263	-0.101658	
